# xmcd
#
# Track frame offsets: 
#        150
#        19460
#        34935
#        48450
#        62345
#        67892
#        82280
#        96597
#        108522
#        121710
#        132335
#        151172
#
# Disc length: 2216 seconds
#
# Revision: 4
# Processed by: cddbd v1.5.2PL0 Copyright (c) Steve Scherf et al.
# Submitted via: ExactAudioCopy v0.95b4
#
DISCID=a208a60c
DTITLE=Chris LeDoux - Chris LeDoux And The Saddle Boogie Band
DYEAR=1988
DGENRE=Country
TTITLE0=Seventeen
TTITLE1=Hooked On An 8 Second Ride
TTITLE2=Cadillac Cowboy
TTITLE3=Sweet Wyoming Home
TTITLE4=Homecoming
TTITLE5=Looking At You Girl
TTITLE6=Searching For A Rainbow
TTITLE7=Chris And The Saddle Boogie Band
TTITLE8=Call Of The Wild
TTITLE9=Utah Tribute
TTITLE10=Night Rider's Lament
TTITLE11=Cowboys Like A Little Rock And Roll
EXTD=
EXTT0=
EXTT1=
EXTT2=
EXTT3=
EXTT4=
EXTT5=
EXTT6=
EXTT7=
EXTT8=
EXTT9=
EXTT10=
EXTT11=
PLAYORDER=
